<?xml version="1.0" encoding="utf-8"?>
<!-- Generator: Adobe Illustrator 21.1.0, SVG Export Plug-In . SVG Version: 6.00 Build 0)  -->
<svg version="1.1" id="Layer_1" xmlns="http://www.w3.org/2000/svg" xmlns:xlink="http://www.w3.org/1999/xlink" x="0px" y="0px"
	 viewBox="0 0 177 63" style="enable-background:new 0 0 177 63;" xml:space="preserve">
<style type="text/css">
	.st0{fill:#FFFFFF;enable-background:new    ;}
</style>
<path class="st0" d="M61.5,28.3h-6.2c2.1,2.2,5.5,4.3,8.5,5.3c-0.4,0.3-0.8,0.9-1.1,1.3c-3.1-1.2-6.6-3.5-8.8-6.1v6.5h-1.6v-6.4
	c-2.2,2.5-5.6,4.8-8.6,6c-0.2-0.4-0.7-1-1.1-1.3c2.9-1,6.3-3.1,8.4-5.3h-5.8v-8.4h7.1v-2.1h-9.1v-1.5h9.1v-2.2l2,0.1
	c0,0.2-0.1,0.3-0.5,0.3v1.8h9.4v1.5H54v2.1h7.5C61.5,19.9,61.5,28.3,61.5,28.3z M46.8,23.5h5.6v-2.3h-5.6V23.5z M46.8,27h5.6v-2.4
	h-5.6V27z M59.9,21.1h-6v2.3h6V21.1z M59.9,24.6h-6V27h6V24.6z"/>
<path class="st0" d="M71.8,29.3c-0.1,0.2-0.3,0.2-0.5,0.2c-0.9,1.5-2.8,3.6-4.4,4.9c-0.3-0.3-0.9-0.7-1.2-0.9
	c1.7-1.2,3.4-3.1,4.3-4.8L71.8,29.3z M86.1,16.9v1.5H65.9v-1.5h9.2v-2.8l2,0.1c0,0.2-0.1,0.3-0.5,0.3v2.3H86.1z M83.4,27.3h-6.6v6.1
	c0,1.8-0.8,1.8-5.1,1.8c-0.1-0.4-0.3-1-0.5-1.5c1,0,1.9,0,2.5,0c1.4,0,1.5,0,1.5-0.5v-6.1h-6.3v-6.7h14.5V27.3z M70.4,25.9h11.4v-4
	H70.4V25.9z M84.7,34.5c-0.9-1.3-2.8-3.5-4.3-5.1l1.4-0.7c1.5,1.5,3.5,3.6,4.4,5L84.7,34.5z"/>
<polygon class="st0" points="99.5,31.9 109,31.9 109,33.4 88.5,33.4 88.5,31.9 97.9,31.9 97.9,18.3 89.6,18.3 89.6,16.7 108,16.7 
	108,18.3 99.5,18.3 "/>
<path class="st0" d="M131.6,29.7h-7.9c2.1,1.8,5.4,3.2,8.4,3.9c-0.3,0.3-0.8,0.9-1,1.3c-3.2-0.9-6.7-2.7-8.9-4.9v5.2h-1.5v-5.1
	c-2.2,2.1-5.7,3.8-8.8,4.7c-0.2-0.4-0.7-1-1-1.3c3-0.7,6.2-2.1,8.4-3.8h-7.8v-1.3h9.2v-1.8h-7.1v-1.2h7.1v-1.8h-8.2v-1.3h5.2
	c-0.2-0.7-0.7-1.7-1.2-2.4l0.9-0.2h-5.8v-1.3h3.8c-0.3-1-1.2-2.4-1.9-3.5l1.3-0.5c0.8,1,1.7,2.5,2,3.5l-1.2,0.5h3v-4.2l1.9,0.1
	c0,0.2-0.2,0.3-0.5,0.4v3.7h3v-4.2l2,0.1c0,0.2-0.2,0.3-0.5,0.4v3.7h2.9c-0.3-0.1-0.6-0.2-0.8-0.3c0.7-1,1.5-2.5,1.9-3.6l1.8,0.6
	c0,0.1-0.2,0.2-0.5,0.2c-0.5,0.9-1.2,2.1-1.8,3h3.7v1.3h-5.1l0.7,0.2c-0.1,0.2-0.2,0.2-0.5,0.2c-0.3,0.6-0.8,1.5-1.3,2.2h5.4v1.3
	h-8.4v1.8h7.3v1.2h-7.3v1.8h9.4L131.6,29.7L131.6,29.7z M123.8,22.1c0.4-0.7,0.9-1.7,1.3-2.5H118c0.5,0.8,1,1.8,1.2,2.4l-0.7,0.2
	h5.6L123.8,22.1z"/>
<path class="st0" d="M154.4,22.4h-8.9c1.5,5.4,4.4,9.6,9.3,11.4c-0.4,0.3-0.9,1-1.1,1.4c-4.8-2-7.6-6-9.3-11.5
	c-1,4.5-3.5,9-9.4,11.5c-0.2-0.4-0.7-1-1.1-1.3c6-2.4,8.3-7,9.1-11.6h-8.8v-1.6h9c0.3-2.4,0.3-4.7,0.3-6.7l2.1,0.1
	c0,0.2-0.2,0.3-0.5,0.4c0,1.8,0,3.9-0.3,6.2h9.6L154.4,22.4L154.4,22.4z"/>
<path class="st0" d="M177.2,27.5V29h-9.4v4.4c0,1.9-1.1,1.9-5.3,1.9c-0.1-0.4-0.4-1.1-0.7-1.5c1.2,0,2.2,0.1,2.9,0.1
	c1.3,0,1.5,0,1.5-0.5V29h-9.3v-1.4h9.3v-2l1.1,0.1c1.2-0.6,2.4-1.4,3.3-2.2h-9.9v-1.4h11.5l0.3-0.1l1.2,0.8
	c-0.1,0.1-0.2,0.2-0.3,0.2c-1.3,1.3-3.5,2.8-5.5,3.8v0.8H177.2z M158.9,19.4V23h-1.5V18h3.6c-0.4-0.9-1.3-2.1-2-3l1.3-0.6
	c0.9,1,1.9,2.3,2.3,3.3l-0.7,0.3h4.8c-0.3-1-1.1-2.4-1.8-3.5l1.3-0.5c0.8,1.1,1.6,2.7,1.9,3.6l-0.8,0.3h4c0.9-1,2-2.6,2.6-3.7
	c1.4,0.5,1.6,0.6,1.8,0.8c-0.1,0.1-0.2,0.2-0.5,0.2c-0.6,0.8-1.4,1.9-2.2,2.8h3.7V23h-1.5v-3.7H158.9z"/>
<polygon class="st0" points="48.6,40.5 46.3,40.5 46.3,47.6 45.5,47.6 45.5,40.5 43.2,40.5 43.2,39.8 48.6,39.8 "/>
<path class="st0" d="M53.5,44.8c0,2.1-1.4,3-2.6,3c-1.4,0-2.5-1.1-2.5-2.9c0-1.9,1.2-3,2.6-3C52.5,41.9,53.5,43.1,53.5,44.8
	 M51,42.6c-1.2,0-1.7,1.2-1.7,2.3c0,1.2,0.7,2.2,1.7,2.2c1,0,1.7-1,1.7-2.3C52.7,43.8,52.2,42.6,51,42.6"/>
<path class="st0" d="M59.2,47.6h-1l-1.9-2.8l-0.5,0.6v2.2h-0.8v-8.2h0.8v5.2h0c0.1-0.2,0.3-0.4,0.5-0.6l1.7-2h1l-2.1,2.3L59.2,47.6z
	"/>
<path class="st0" d="M64.3,42L62.8,46c-0.7,1.8-1.1,2.9-1.8,3.5c-0.5,0.4-0.9,0.6-1.1,0.7l-0.2-0.7c1.3-0.5,1.8-1.9,1.8-2
	c0-0.1,0-0.1-0.1-0.2l-2-5.2h0.9l1.2,3.4c0.1,0.4,0.3,0.8,0.4,1.2h0c0.1-0.3,0.2-0.8,0.4-1.2l1.1-3.4C63.4,42,64.3,42,64.3,42z"/>
<path class="st0" d="M70,44.8c0,2.1-1.4,3-2.6,3c-1.4,0-2.5-1.1-2.5-2.9c0-1.9,1.2-3,2.6-3C69,41.9,70,43.1,70,44.8 M67.4,42.6
	c-1.2,0-1.7,1.2-1.7,2.3c0,1.2,0.7,2.2,1.7,2.2c1,0,1.7-1,1.7-2.3C69.1,43.8,68.6,42.6,67.4,42.6"/>
<rect x="73.7" y="39.8" class="st0" width="0.8" height="7.8"/>
<path class="st0" d="M80.5,47.6h-0.8v-3.3c0-0.9-0.3-1.7-1.3-1.7c-0.7,0-1.5,0.6-1.5,1.6v3.4h-0.8v-4.1c0-0.6,0-1,0-1.4h0.8l0.1,0.9
	h0c0.3-0.5,0.9-1,1.8-1c0.7,0,1.9,0.4,1.9,2.3L80.5,47.6L80.5,47.6z"/>
<path class="st0" d="M84.6,42.9c-0.2-0.1-0.6-0.3-1.1-0.3c-0.6,0-0.9,0.4-0.9,0.8c0,0.5,0.3,0.7,1,1c0.9,0.4,1.4,0.8,1.4,1.7
	c0,1-0.8,1.6-2,1.6c-0.6,0-1.1-0.2-1.5-0.4l0.2-0.7c0.3,0.2,0.8,0.4,1.3,0.4c0.7,0,1.1-0.4,1.1-0.9c0-0.5-0.3-0.8-1-1.1
	c-0.9-0.4-1.4-0.9-1.4-1.6c0-0.9,0.7-1.6,1.8-1.6c0.5,0,1,0.2,1.3,0.3L84.6,42.9z"/>
<path class="st0" d="M86.5,41l0.8-0.3V42h1.4v0.7h-1.4v3.2c0,0.7,0.2,1.1,0.8,1.1c0.3,0,0.4,0,0.6-0.1l0.1,0.7
	c-0.2,0.1-0.5,0.1-0.8,0.1c-1.4,0-1.4-1.2-1.4-1.8v-3.2h-0.9V42h0.9L86.5,41L86.5,41z"/>
<path class="st0" d="M90.3,41c-0.3,0-0.6-0.3-0.6-0.6c0-0.3,0.2-0.6,0.6-0.6c0.3,0,0.6,0.3,0.6,0.6C90.9,40.8,90.7,41,90.3,41
	 M90.8,47.6h-0.8V42h0.8V47.6z"/>
<path class="st0" d="M92.7,41l0.8-0.3V42H95v0.7h-1.4v3.2c0,0.7,0.2,1.1,0.8,1.1c0.3,0,0.4,0,0.6-0.1l0.1,0.7
	c-0.2,0.1-0.5,0.1-0.8,0.1c-1.4,0-1.4-1.2-1.4-1.8v-3.2h-0.9V42h0.9V41z"/>
<path class="st0" d="M100.2,46.1c0,0.6,0,1.1,0.1,1.5h-0.8l0-0.9h0c-0.3,0.4-0.8,1-1.8,1c-0.8,0-1.8-0.5-1.8-2.4V42h0.8v3.1
	c0,1.1,0.3,1.8,1.2,1.8c0.7,0,1.5-0.5,1.5-1.5V42h0.8L100.2,46.1L100.2,46.1z"/>
<path class="st0" d="M101.9,41l0.8-0.3V42h1.4v0.7h-1.4v3.2c0,0.7,0.2,1.1,0.8,1.1c0.3,0,0.4,0,0.6-0.1l0.1,0.7
	c-0.2,0.1-0.5,0.1-0.8,0.1c-1.4,0-1.4-1.2-1.4-1.8v-3.2h-0.9V42h0.9V41z"/>
<path class="st0" d="M109.1,47.4c-0.3,0.2-0.9,0.3-1.8,0.3c-1.6,0-2.6-1.1-2.6-2.8c0-1.7,1-3,2.5-3c1.7,0,2.2,1.6,2.2,2.5
	c0,0.2,0,0.3,0,0.5h-3.8c0,1.5,0.9,2.1,1.9,2.1c0.7,0,1.1-0.1,1.5-0.3L109.1,47.4z M108.5,44.3c0-0.8-0.3-1.7-1.4-1.7
	c-1,0-1.5,1-1.6,1.7H108.5z"/>
<path class="st0" d="M117.7,44.8c0,2.1-1.4,3-2.6,3c-1.4,0-2.5-1.1-2.5-2.9c0-1.9,1.2-3,2.6-3C116.7,41.9,117.7,43.1,117.7,44.8
	 M115.2,42.6c-1.2,0-1.7,1.2-1.7,2.3c0,1.2,0.7,2.2,1.7,2.2c1,0,1.7-1,1.7-2.3C116.9,43.8,116.4,42.6,115.2,42.6"/>
<path class="st0" d="M119.1,42c0-0.7,0-1.6,0.6-2.2c0.4-0.4,0.8-0.5,1.3-0.5c0.4,0,0.6,0.1,0.8,0.2l-0.1,0.7
	c-0.2-0.1-0.4-0.1-0.6-0.1c-0.9,0-1.1,0.8-1.1,1.7V42h1.4v0.7H120v4.9h-0.9v-4.9h-0.8V42C118.3,42,119.1,42,119.1,42z"/>
<polygon class="st0" points="129.2,40.5 126.9,40.5 126.9,47.6 126,47.6 126,40.5 123.7,40.5 123.7,39.8 129.2,39.8 "/>
<path class="st0" d="M133.1,47.4c-0.3,0.2-0.9,0.3-1.7,0.3c-1.6,0-2.6-1.1-2.6-2.8c0-1.7,1-3,2.5-3c1.7,0,2.2,1.6,2.2,2.5
	c0,0.2,0,0.3,0,0.5h-3.8c0,1.5,0.9,2.1,1.9,2.1c0.7,0,1.1-0.1,1.5-0.3L133.1,47.4z M132.6,44.3c0-0.8-0.3-1.7-1.4-1.7
	c-1,0-1.5,1-1.6,1.7H132.6z"/>
<path class="st0" d="M138.7,47.4c-0.2,0.1-0.8,0.3-1.5,0.3c-1.6,0-2.6-1.1-2.6-2.8c0-1.7,1.1-3,2.9-3c0.6,0,1.1,0.2,1.3,0.3
	l-0.2,0.7c-0.2-0.1-0.6-0.3-1.1-0.3c-1.3,0-2,1-2,2.2c0,1.4,0.8,2.2,1.9,2.2c0.6,0,0.9-0.2,1.2-0.3L138.7,47.4z"/>
<path class="st0" d="M144.5,47.6h-0.9v-3.3c0-0.9-0.3-1.7-1.3-1.7c-0.7,0-1.5,0.5-1.5,1.6v3.4H140v-8.2h0.9v3.5h0c0.4-0.6,1-1,1.7-1
	c0.7,0,1.9,0.4,1.9,2.3L144.5,47.6L144.5,47.6L144.5,47.6z"/>
<path class="st0" d="M150.6,47.6h-0.8v-3.3c0-0.9-0.3-1.7-1.3-1.7c-0.7,0-1.5,0.6-1.5,1.6v3.4h-0.9v-4.1c0-0.6,0-1,0-1.4h0.8
	l0.1,0.9h0c0.3-0.5,0.9-1,1.8-1c0.7,0,1.9,0.4,1.9,2.3L150.6,47.6L150.6,47.6z"/>
<path class="st0" d="M157,44.8c0,2.1-1.4,3-2.6,3c-1.4,0-2.5-1.1-2.5-2.9c0-1.9,1.2-3,2.6-3C156,41.9,157,43.1,157,44.8 M154.4,42.6
	c-1.2,0-1.7,1.2-1.7,2.3c0,1.2,0.7,2.2,1.7,2.2c1,0,1.7-1,1.7-2.3C156.1,43.8,155.6,42.6,154.4,42.6"/>
<rect x="158.1" y="39.4" class="st0" width="0.8" height="8.2"/>
<path class="st0" d="M165.3,44.8c0,2.1-1.4,3-2.6,3c-1.4,0-2.5-1.1-2.5-2.9c0-1.9,1.2-3,2.6-3C164.3,41.9,165.3,43.1,165.3,44.8
	 M162.8,42.6c-1.2,0-1.7,1.2-1.7,2.3c0,1.2,0.7,2.2,1.7,2.2c1,0,1.7-1,1.7-2.3C164.5,43.8,164,42.6,162.8,42.6"/>
<path class="st0" d="M171.2,42c0,0.4-0.1,0.9-0.1,1.5v3.3c0,1,0,3.2-2.7,3.2c-0.6,0-1.3-0.2-1.7-0.4l0.2-0.7
	c0.4,0.2,0.9,0.4,1.6,0.4c1,0,1.8-0.5,1.8-2v-0.7h0c-0.3,0.5-0.9,1-1.7,1c-1.3,0-2.3-1.2-2.3-2.7c0-1.9,1.2-3,2.4-3
	c0.9,0,1.5,0.5,1.7,1h0l0-0.8L171.2,42L171.2,42z M170.2,44.2c0-1-0.7-1.6-1.5-1.6c-1,0-1.7,0.9-1.7,2.2c0,1.2,0.6,2.1,1.7,2.1
	c0.6,0,1.5-0.5,1.5-1.6V44.2z"/>
<path class="st0" d="M177,42l-1.5,3.9c-0.7,1.8-1.1,2.9-1.8,3.5c-0.5,0.4-0.9,0.6-1.1,0.7l-0.2-0.7c1.3-0.5,1.8-1.9,1.8-2
	c0-0.1,0-0.1-0.1-0.2l-2-5.2h0.9l1.2,3.4c0.1,0.4,0.3,0.8,0.4,1.2h0c0.1-0.3,0.2-0.8,0.4-1.2l1.1-3.4C176.1,42,177,42,177,42z"/>
<path class="st0" d="M-0.1,48.8h35.9V12.9H-0.1V48.8z M34.8,47.8H1l3.4-3.5v-27L1,13.9h33.8l-3.4,3.5v27L34.8,47.8z M26.5,36.8
	c0.1,0.2,0.1,0.2,0,0.3c0,0-0.1,0-0.2-0.1c0,0,0,0,0,0c0,0,0,0,0,0c-0.7-1.1-1.2-2.6-1.3-3c-0.1-0.6-0.4-1.3-0.4-3.4
	c0-2.5-0.7-2.8-2.6-3c-2.4-0.2-2.7,1.3-2.8,1.7c-0.3,1.5-0.5,2.7-0.2,3.1c0.4,0.5,0.5,0.8,0.9,1.5c0.7,1.3,1.6,5.1,2.2,7.2
	c0.1,0.2,0.1,0.3,0,0.3c0,0-0.1,0-0.2-0.2c-0.7-1.7-1.9-4.5-2.3-5.4c-0.6-1.3-1.3-1.6-1.5-1.6c-0.2,0-0.9,0.3-1.5,1.6
	c-0.4,0.9-1.6,3.7-2.3,5.4c-0.1,0.2-0.2,0.2-0.2,0.2c0,0,0-0.1,0-0.3c0.5-2.1,1.5-5.9,2.2-7.2c0.4-0.8,0.5-1.1,0.8-1.5
	c0.3-0.4,0.1-1.6-0.2-3.1c-0.1-0.5-0.3-1.9-2.8-1.7c-2,0.2-2.6,0.5-2.6,3c0,2.1-0.2,2.8-0.4,3.4c-0.1,0.5-0.6,1.9-1.3,3c0,0,0,0,0,0
	c0,0,0,0,0,0c-0.1,0.2-0.2,0.2-0.2,0.1c0,0,0-0.1,0-0.3c0.3-0.8,0.7-2.2,0.7-3.7c0-1.1-0.1-4.9,0-5.7c0.1-0.7-0.1-1.8,2-2.4
	c0,0,1.3-0.4,2.5-0.6c0.5-0.1,1.3-0.1,1.6-0.7c0.4-0.8,0.5-2.3,1.2-3.1c0.1-0.1,0.2-0.2,0.2-0.4c0.1-0.2,0.2-0.3,0.2-0.3
	c0,0,0.1,0,0.2,0.3c0.1,0.2,0.2,0.3,0.2,0.4c0.7,0.8,0.8,2.2,1.2,3.1c0.3,0.6,1.1,0.6,1.6,0.7c1.3,0.2,2.5,0.6,2.5,0.6
	c2.1,0.6,1.9,1.7,2,2.4c0.1,0.7,0,4.6,0,5.7C25.8,34.6,26.2,36.1,26.5,36.8z"/>
</svg>
